<svg width="60" height="60" viewBox="0 0 60 60" fill="none" xmlns="http://www.w3.org/2000/svg">
<g id="carbon:roadmap">
<path id="Vector" d="M22.5 56.25H7.5C6.50574 56.249 5.55249 55.8536 4.84945 55.1506C4.1464 54.4475 3.75099 53.4943 3.75 52.5V45C3.75099 44.0057 4.1464 43.0525 4.84945 42.3494C5.55249 41.6464 6.50574 41.251 7.5 41.25H22.5C23.4943 41.251 24.4475 41.6464 25.1506 42.3494C25.8536 43.0525 26.249 44.0057 26.25 45V52.5C26.249 53.4943 25.8536 54.4475 25.1506 55.1506C24.4475 55.8536 23.4943 56.249 22.5 56.25ZM7.5 45V52.5H22.5V45H7.5ZM52.5 37.5H22.5C21.5057 37.499 20.5525 37.1036 19.8494 36.4006C19.1464 35.6975 18.751 34.7443 18.75 33.75V26.25C18.751 25.2557 19.1464 24.3025 19.8494 23.5994C20.5525 22.8964 21.5057 22.501 22.5 22.5H52.5C53.4943 22.501 54.4475 22.8964 55.1506 23.5994C55.8536 24.3025 56.249 25.2557 56.25 26.25V33.75C56.249 34.7443 55.8536 35.6975 55.1506 36.4006C54.4475 37.1036 53.4943 37.499 52.5 37.5ZM22.5 26.25V33.75H52.5V26.25H22.5ZM30 18.75H7.5C6.50574 18.749 5.55249 18.3536 4.84945 17.6506C4.1464 16.9475 3.75099 15.9943 3.75 15V7.5C3.75099 6.50574 4.1464 5.55249 4.84945 4.84945C5.55249 4.1464 6.50574 3.75099 7.5 3.75H30C30.9943 3.75099 31.9475 4.1464 32.6506 4.84945C33.3536 5.55249 33.749 6.50574 33.75 7.5V15C33.749 15.9943 33.3536 16.9475 32.6506 17.6506C31.9475 18.3536 30.9943 18.749 30 18.75ZM7.5 7.5V15H30V7.5H7.5Z" fill="#F3BD00"/>
</g>
</svg>
