<svg width="100" height="100" viewBox="0 0 100 100" fill="none" xmlns="http://www.w3.org/2000/svg">
<rect width="100" height="100" fill="#2E2E2E"/>
<path d="M49.7478 15C31.9774 15 33.087 22.7466 33.087 22.7466L33.1067 30.7723H50.0646V33.1818H26.3713C26.3713 33.1818 15 31.8854 15 49.9093C15 67.9338 24.9251 67.2946 24.9251 67.2946H30.8484V58.9305C30.8484 58.9305 30.5291 48.9535 40.6151 48.9535H57.4343C57.4343 48.9535 66.8839 49.107 66.8839 39.7731V24.34C66.8839 24.34 68.3191 15 49.7478 15ZM40.3972 20.3971C40.7979 20.3968 41.1948 20.4758 41.5651 20.6298C41.9353 20.7838 42.2718 21.0097 42.5552 21.2945C42.8385 21.5794 43.0632 21.9176 43.2164 22.2898C43.3696 22.662 43.4482 23.061 43.4479 23.4638C43.4482 23.8666 43.3696 24.2656 43.2164 24.6378C43.0632 25.01 42.8385 25.3482 42.5552 25.6331C42.2718 25.9179 41.9353 26.1438 41.5651 26.2978C41.1948 26.4517 40.7979 26.5308 40.3972 26.5305C39.9964 26.5308 39.5996 26.4517 39.2293 26.2978C38.859 26.1438 38.5225 25.9179 38.2392 25.6331C37.9558 25.3482 37.7311 25.01 37.5779 24.6378C37.4248 24.2656 37.3461 23.8666 37.3464 23.4638C37.3461 23.061 37.4248 22.662 37.5779 22.2898C37.7311 21.9176 37.9558 21.5794 38.2392 21.2945C38.5225 21.0097 38.859 20.7838 39.2293 20.6298C39.5996 20.4758 39.9964 20.3968 40.3972 20.3971Z" fill="url(#paint0_linear_668_557)"/>
<path d="M50.2529 85C68.0233 85 66.9137 77.2534 66.9137 77.2534L66.894 69.228H49.9358V66.8185H73.6292C73.6292 66.8185 85.0004 68.1149 85.0004 50.0904C85.0004 32.0662 75.0753 32.7054 75.0753 32.7054H69.152V41.0692C69.152 41.0692 69.4713 51.0462 59.3853 51.0462H42.5661C42.5661 51.0462 33.1165 50.8927 33.1165 60.2269V75.6603C33.1165 75.6603 31.6816 85 50.2526 85H50.2529ZM59.6035 79.6034C59.2028 79.6038 58.8059 79.5247 58.4356 79.3707C58.0653 79.2168 57.7289 78.9909 57.4455 78.706C57.1622 78.4212 56.9375 78.083 56.7843 77.7108C56.6311 77.3385 56.5524 76.9396 56.5528 76.5368C56.5524 76.1339 56.631 75.735 56.7842 75.3627C56.9374 74.9904 57.1621 74.6522 57.4454 74.3673C57.7288 74.0825 58.0653 73.8566 58.4356 73.7026C58.8059 73.5485 59.2028 73.4695 59.6035 73.4698C60.0042 73.4695 60.4011 73.5485 60.7714 73.7025C61.1417 73.8565 61.4781 74.0824 61.7615 74.3672C62.0449 74.6521 62.2696 74.9903 62.4227 75.3625C62.5759 75.7347 62.6546 76.1337 62.6542 76.5365C62.6546 76.9393 62.5759 77.3383 62.4227 77.7105C62.2696 78.0827 62.0449 78.4209 61.7615 78.7058C61.4781 78.9906 61.1417 79.2165 60.7714 79.3705C60.4011 79.5245 60.0042 79.6038 59.6035 79.6034Z" fill="url(#paint1_linear_668_557)"/>
<defs>
<linearGradient id="paint0_linear_668_557" x1="687.697" y1="644.608" x2="4174.59" y2="4078.76" gradientUnits="userSpaceOnUse">
<stop stop-color="#387EB8"/>
<stop offset="1" stop-color="#366994"/>
</linearGradient>
<linearGradient id="paint1_linear_668_557" x1="1026.02" y1="1108.93" x2="4769.63" y2="4629.49" gradientUnits="userSpaceOnUse">
<stop stop-color="#FFE052"/>
<stop offset="1" stop-color="#FFC331"/>
</linearGradient>
</defs>
</svg>
