<svg width="60" height="60" viewBox="0 0 60 60" fill="none" xmlns="http://www.w3.org/2000/svg">
<g id="iconoir:doc-magnifying-glass">
<g id="Group">
<path id="Vector" d="M51.25 51.25L55 55M37.5 45C37.5 46.9891 38.2902 48.8968 39.6967 50.3033C41.1032 51.7098 43.0109 52.5 45 52.5C46.9891 52.5 48.8968 51.7098 50.3033 50.3033C51.7098 48.8968 52.5 46.9891 52.5 45C52.5 43.0109 51.7098 41.1032 50.3033 39.6967C48.8968 38.2902 46.9891 37.5 45 37.5C43.0109 37.5 41.1032 38.2902 39.6967 39.6967C38.2902 41.1032 37.5 43.0109 37.5 45Z" stroke="#0948B4" stroke-width="2" stroke-linecap="round" stroke-linejoin="round"/>
<path id="Vector_2" d="M50 30V14.3725C50.0002 14.1752 49.9614 13.9797 49.8859 13.7974C49.8104 13.6151 49.6996 13.4495 49.56 13.31L41.69 5.44C41.409 5.15862 41.0277 5.00035 40.63 5H11.5C11.1022 5 10.7206 5.15804 10.4393 5.43934C10.158 5.72064 10 6.10218 10 6.5V53.5C10 53.8978 10.158 54.2794 10.4393 54.5607C10.7206 54.842 11.1022 55 11.5 55H27.5" stroke="#F3BD00" stroke-width="3" stroke-linecap="round" stroke-linejoin="round"/>
<path id="Vector_3" d="M40 5V13.5C40 13.8978 40.158 14.2794 40.4393 14.5607C40.7206 14.842 41.1022 15 41.5 15H50" stroke="#F3BD00" stroke-width="3" stroke-linecap="round" stroke-linejoin="round"/>
</g>
</g>
</svg>
